<?xml version="1.0" encoding="UTF-8"?>
<!DOCTYPE svg PUBLIC "-//W3C//DTD SVG 1.1//EN" "http://www.w3.org/Graphics/SVG/1.1/DTD/svg11.dtd">
<svg version="1.1" xmlns="http://www.w3.org/2000/svg" xmlns:xlink="http://www.w3.org/1999/xlink" x="0" y="0" width="632.617" height="197.645" viewBox="0, 0, 632.617, 197.645">
  <g id="Layer_3" transform="translate(-166.432, 139.168)">
    <path d="M182.547,31.998 Q182.547,42.852 184.257,48.987 Q185.968,55.122 191.156,58.425 Q187.845,58.661 184.975,57.835 Q182.105,57.009 179.235,52.526 Q176.366,48.043 175.759,41.318 Q175.152,34.594 175.152,27.751 L175.152,-15.664 Q175.152,-21.091 174.876,-24.867 Q174.6,-28.642 172.834,-33.125 Q170.405,-39.024 166.432,-40.911 Q169.412,-42.091 172.061,-46.102 Q174.489,-50.114 174.82,-55.187 Q175.152,-60.26 175.152,-66.159 L175.152,-104.619 Q175.152,-114.293 175.869,-121.018 Q176.586,-127.742 178.408,-131.872 Q180.229,-136.001 183.319,-137.77 Q186.41,-139.54 191.156,-139.068 Q186.189,-136.001 184.368,-129.748 Q182.547,-123.495 182.547,-112.877 L182.547,-72.293 Q182.547,-66.159 182.215,-61.086 Q181.884,-56.012 180.891,-52.001 Q179.898,-47.99 177.966,-45.159 Q176.035,-42.327 172.944,-40.911 Q178.904,-38.08 180.725,-30.765 Q182.547,-23.451 182.547,-11.417 z" fill="#FFFFFF"/>
    <path d="M782.935,31.998 Q782.935,42.852 781.224,48.987 Q779.513,55.122 774.326,58.425 Q777.637,58.661 780.507,57.835 Q783.376,57.009 786.246,52.526 Q789.116,48.043 789.723,41.318 Q790.33,34.594 790.33,27.751 L790.33,-15.664 Q790.33,-21.091 790.606,-24.867 Q790.882,-28.642 792.648,-33.125 Q795.076,-39.024 799.049,-40.911 Q796.069,-42.091 793.42,-46.102 Q790.992,-50.114 790.661,-55.187 Q790.33,-60.26 790.33,-66.159 L790.33,-104.619 Q790.33,-114.293 789.612,-121.018 Q788.895,-127.742 787.074,-131.872 Q785.253,-136.001 782.162,-137.77 Q779.072,-139.54 774.326,-139.068 Q779.292,-136.001 781.114,-129.748 Q782.935,-123.495 782.935,-112.877 L782.935,-72.293 Q782.935,-66.159 783.266,-61.086 Q783.597,-56.013 784.59,-52.001 Q785.584,-47.99 787.515,-45.159 Q789.447,-42.327 792.537,-40.911 Q786.577,-38.08 784.756,-30.765 Q782.935,-23.451 782.935,-11.417 z" fill="#FFFFFF"/>
  </g>
</svg>
