<?xml version="1.0" encoding="UTF-8"?>
<!DOCTYPE svg PUBLIC "-//W3C//DTD SVG 1.1//EN" "http://www.w3.org/Graphics/SVG/1.1/DTD/svg11.dtd">
<svg version="1.1" xmlns="http://www.w3.org/2000/svg" xmlns:xlink="http://www.w3.org/1999/xlink" x="0" y="0" width="316.204" height="23.6" viewBox="0, 0, 316.204, 23.6">
  <g id="Layer_1" transform="translate(-38.616, -42.976)">
    <path d="M46.708,59.546 L49.256,59.546 L49.256,61.185 L42.144,61.185 L42.144,59.546 L44.692,59.546 L44.692,45.088 L40.352,45.088 L40.352,48.193 L38.616,48.193 L38.616,43.448 L52.784,43.448 L52.784,48.193 L51.048,48.193 L51.048,45.088 L46.708,45.088 z" fill="#1C1C1C"/>
    <path d="M57.852,50.578 Q58.58,49.336 59.854,48.628 Q61.128,47.92 62.724,47.92 Q65.356,47.92 67.12,49.758 Q68.072,50.776 68.282,51.882 Q68.492,52.987 68.492,54.229 L68.492,59.645 L70.956,59.645 L70.956,61.185 L64.18,61.185 L64.18,59.645 L66.644,59.645 L66.644,54.9 Q66.644,53.981 66.588,53.074 Q66.532,52.168 66,51.373 Q65.44,50.503 64.446,50.006 Q63.452,49.509 62.332,49.509 Q61.352,49.509 60.498,49.832 Q59.644,50.155 59,50.801 Q58.58,51.224 58.342,51.646 Q58.104,52.068 58.006,52.515 Q57.908,52.963 57.88,53.447 Q57.852,53.931 57.852,54.453 L57.852,59.645 L60.316,59.645 L60.316,61.185 L53.54,61.185 L53.54,59.645 L56.004,59.645 L56.004,44.988 L53.54,44.988 L53.54,43.448 L57.852,43.448 z" fill="#1C1C1C"/>
    <path d="M75.828,46.007 L73.98,46.007 L73.98,43.448 L75.828,43.448 z M75.828,59.645 L78.292,59.645 L78.292,61.185 L71.46,61.185 L71.46,59.645 L73.98,59.645 L73.98,49.683 L71.516,49.683 L71.516,48.143 L75.828,48.143 z" fill="#1C1C1C"/>
    <path d="M83.052,50.429 Q83.752,49.211 85.11,48.565 Q86.468,47.92 87.98,47.92 Q88.596,47.92 89.338,48.069 Q90.08,48.218 90.78,48.528 Q91.48,48.839 92.082,49.311 Q92.684,49.783 93.048,50.429 Q93.328,50.925 93.594,51.783 Q93.86,52.64 93.86,53.832 L93.86,59.645 L96.324,59.645 L96.324,61.185 L89.548,61.185 L89.548,59.645 L92.012,59.645 L92.012,54.428 Q92.012,53.559 91.914,52.727 Q91.816,51.894 91.312,51.124 Q91.004,50.677 90.57,50.367 Q90.136,50.056 89.618,49.87 Q89.1,49.683 88.554,49.609 Q88.008,49.534 87.476,49.534 Q86.496,49.534 85.586,49.895 Q84.676,50.255 84.032,50.901 Q83.304,51.646 83.178,52.478 Q83.052,53.31 83.052,54.229 L83.052,59.645 L85.516,59.645 L85.516,61.185 L78.74,61.185 L78.74,59.645 L81.204,59.645 L81.204,49.683 L78.74,49.683 L78.74,48.143 L83.052,48.143 z" fill="#1C1C1C"/>
    <path d="M101.588,53.956 L106.992,49.683 L104.78,49.683 L104.78,48.143 L111.696,48.143 L111.696,49.683 L109.288,49.683 L103.772,54.13 L109.96,59.645 L112.62,59.645 L112.62,61.185 L105.396,61.185 L105.396,59.645 L107.468,59.645 L101.588,54.379 L101.588,59.645 L103.828,59.645 L103.828,61.185 L97.22,61.185 L97.22,59.645 L99.74,59.645 L99.74,44.988 L97.22,44.988 L97.22,43.448 L101.588,43.448 z" fill="#1C1C1C"/>
    <path d="M128.384,52.217 Q127.656,52.515 126.942,52.888 Q126.228,53.261 125.668,53.745 Q125.108,54.229 124.772,54.863 Q124.436,55.496 124.436,56.316 Q124.436,57.061 124.758,57.732 Q125.08,58.403 125.626,58.9 Q126.172,59.397 126.914,59.695 Q127.656,59.993 128.524,59.993 Q129.532,59.993 130.26,59.695 Q130.988,59.397 131.534,58.9 Q132.08,58.403 132.486,57.757 Q132.892,57.111 133.284,56.391 z M128.748,50.255 Q129.28,50.031 129.868,49.733 Q130.456,49.435 130.946,49.05 Q131.436,48.665 131.744,48.18 Q132.052,47.696 132.052,47.075 Q132.052,46.553 131.828,46.069 Q131.604,45.584 131.226,45.237 Q130.848,44.889 130.316,44.678 Q129.784,44.467 129.168,44.467 Q128.58,44.467 128.062,44.653 Q127.544,44.839 127.138,45.175 Q126.732,45.51 126.508,45.969 Q126.284,46.429 126.284,46.976 Q126.284,47.472 126.438,47.87 Q126.592,48.267 126.872,48.59 Q127.152,48.913 127.488,49.211 Q127.824,49.509 128.216,49.832 z M139.164,61.459 L134.6,57.509 Q134.096,58.403 133.522,59.148 Q132.948,59.893 132.206,60.415 Q131.464,60.937 130.526,61.235 Q129.588,61.533 128.384,61.533 Q127.18,61.533 126.102,61.136 Q125.024,60.738 124.212,60.043 Q123.4,59.347 122.924,58.403 Q122.448,57.459 122.448,56.366 Q122.448,55.397 122.84,54.602 Q123.232,53.807 123.89,53.161 Q124.548,52.515 125.402,52.006 Q126.256,51.497 127.152,51.099 L126.76,50.776 Q126.256,50.379 125.836,49.981 Q125.416,49.584 125.108,49.137 Q124.8,48.69 124.618,48.18 Q124.436,47.671 124.436,47.025 Q124.436,46.156 124.814,45.411 Q125.192,44.665 125.822,44.131 Q126.452,43.597 127.306,43.287 Q128.16,42.976 129.14,42.976 Q130.064,42.976 130.904,43.287 Q131.744,43.597 132.374,44.131 Q133.004,44.665 133.382,45.386 Q133.76,46.106 133.76,46.951 Q133.76,47.771 133.438,48.416 Q133.116,49.062 132.57,49.584 Q132.024,50.106 131.338,50.516 Q130.652,50.925 129.896,51.248 L134.348,55.024 L136.98,49.981 L140.592,49.981 L140.592,51.522 L138.156,51.522 L135.664,56.192 L140.452,60.316 z" fill="#1C1C1C"/>
    <path d="M165.176,45.088 L162.628,45.088 L162.628,43.448 L169.74,43.448 L169.74,45.088 L167.192,45.088 L167.192,59.546 L169.74,59.546 L169.74,61.185 L162.628,61.185 L162.628,59.546 L165.176,59.546 L165.176,52.913 L155.236,52.913 L155.236,59.546 L157.812,59.546 L157.812,61.185 L150.672,61.185 L150.672,59.546 L153.22,59.546 L153.22,45.088 L150.672,45.088 L150.672,43.448 L157.812,43.448 L157.812,45.088 L155.236,45.088 L155.236,51.522 L165.176,51.522 z" fill="#1C1C1C"/>
    <path d="M178.336,49.534 Q177.104,49.534 176.026,49.944 Q174.948,50.354 174.15,51.062 Q173.352,51.77 172.876,52.727 Q172.4,53.683 172.4,54.751 Q172.4,55.795 172.862,56.739 Q173.324,57.683 174.122,58.391 Q174.92,59.099 175.984,59.521 Q177.048,59.943 178.252,59.943 Q179.512,59.943 180.59,59.533 Q181.668,59.123 182.466,58.415 Q183.264,57.707 183.726,56.751 Q184.188,55.795 184.188,54.701 Q184.188,53.633 183.726,52.689 Q183.264,51.745 182.466,51.05 Q181.668,50.354 180.604,49.944 Q179.54,49.534 178.336,49.534 z M184.16,58.477 Q183.18,59.968 181.64,60.751 Q180.1,61.533 178.168,61.533 Q176.152,61.533 174.43,60.713 Q172.708,59.893 171.728,58.477 Q171.168,57.683 170.832,56.751 Q170.496,55.819 170.552,54.726 Q170.552,54.031 170.664,53.484 Q170.776,52.938 170.944,52.515 Q171.112,52.093 171.336,51.733 Q171.56,51.373 171.784,51 Q172.232,50.304 172.904,49.733 Q173.576,49.162 174.416,48.752 Q175.256,48.342 176.194,48.131 Q177.132,47.92 178.14,47.92 Q180.156,47.92 181.654,48.715 Q183.152,49.509 184.16,51 L184.16,48.143 L188.444,48.143 L188.444,49.683 L186.008,49.683 L186.008,59.645 L188.444,59.645 L188.444,61.185 L184.16,61.185 z" fill="#1C1C1C"/>
    <path d="M203.452,52.068 L201.716,52.068 Q200.904,50.901 199.56,50.23 Q198.216,49.559 196.676,49.559 Q195.444,49.559 194.394,49.969 Q193.344,50.379 192.56,51.087 Q191.776,51.795 191.328,52.751 Q190.88,53.708 190.88,54.776 Q190.88,55.869 191.342,56.801 Q191.804,57.732 192.602,58.428 Q193.4,59.123 194.492,59.508 Q195.584,59.893 196.816,59.893 Q197.6,59.893 198.37,59.707 Q199.14,59.521 199.798,59.161 Q200.456,58.8 200.988,58.279 Q201.52,57.757 201.856,57.111 L203.928,57.111 Q203.508,58.13 202.78,58.949 Q202.052,59.769 201.086,60.341 Q200.12,60.912 198.986,61.223 Q197.852,61.533 196.648,61.533 Q195.08,61.533 193.694,60.999 Q192.308,60.465 191.272,59.546 Q190.236,58.627 189.634,57.397 Q189.032,56.167 189.032,54.801 Q189.032,53.385 189.606,52.155 Q190.18,50.925 191.188,50.006 Q192.252,49.062 193.61,48.491 Q194.968,47.92 196.564,47.92 Q198.132,47.92 199.42,48.454 Q200.708,48.988 201.716,50.006 L201.716,48.143 L203.452,48.143 z" fill="#1C1C1C"/>
    <path d="M209.108,53.956 L214.512,49.683 L212.3,49.683 L212.3,48.143 L219.216,48.143 L219.216,49.683 L216.808,49.683 L211.292,54.13 L217.48,59.645 L220.14,59.645 L220.14,61.185 L212.916,61.185 L212.916,59.645 L214.988,59.645 L209.108,54.379 L209.108,59.645 L211.348,59.645 L211.348,61.185 L204.74,61.185 L204.74,59.645 L207.26,59.645 L207.26,44.988 L204.74,44.988 L204.74,43.448 L209.108,43.448 z" fill="#1C1C1C"/>
    <path d="M225.656,52.093 L223.864,52.093 L223.864,49.385 L225.656,49.385 z M221.848,63.595 L223.92,59.024 L225.684,59.024 L223.612,63.595 z" fill="#80AECE"/>
    <path d="M242.4,59.645 L245.872,59.645 L245.872,61.185 L240.552,61.185 L240.552,49.683 L237.724,49.683 L237.724,48.143 L240.552,48.143 L240.552,43.448 L242.4,43.448 L242.4,48.143 L245.648,48.143 L245.648,49.683 L242.4,49.683 z" fill="#80AECE"/>
    <path d="M254.384,59.918 Q255.588,59.918 256.666,59.508 Q257.744,59.099 258.528,58.391 Q259.312,57.683 259.774,56.739 Q260.236,55.795 260.236,54.726 Q260.236,53.658 259.788,52.714 Q259.34,51.77 258.542,51.062 Q257.744,50.354 256.68,49.944 Q255.616,49.534 254.412,49.534 Q253.18,49.534 252.116,49.944 Q251.052,50.354 250.254,51.05 Q249.456,51.745 248.994,52.689 Q248.532,53.633 248.532,54.701 Q248.532,55.77 248.98,56.714 Q249.428,57.658 250.226,58.366 Q251.024,59.074 252.088,59.496 Q253.152,59.918 254.384,59.918 z M254.384,61.533 Q252.788,61.533 251.388,60.999 Q249.988,60.465 248.938,59.546 Q247.888,58.627 247.286,57.384 Q246.684,56.142 246.684,54.751 Q246.684,53.335 247.3,52.081 Q247.916,50.826 248.966,49.907 Q250.016,48.988 251.43,48.454 Q252.844,47.92 254.44,47.92 Q256.008,47.92 257.394,48.454 Q258.78,48.988 259.83,49.895 Q260.88,50.801 261.482,52.031 Q262.084,53.261 262.084,54.627 Q262.084,56.043 261.482,57.31 Q260.88,58.577 259.844,59.508 Q258.808,60.44 257.408,60.987 Q256.008,61.533 254.384,61.533 z" fill="#80AECE"/>
    <path d="M270.736,59.993 Q271.968,59.993 273.032,59.571 Q274.096,59.148 274.894,58.428 Q275.692,57.707 276.154,56.751 Q276.616,55.795 276.616,54.701 Q276.616,53.633 276.154,52.664 Q275.692,51.696 274.894,50.988 Q274.096,50.28 273.018,49.857 Q271.94,49.435 270.708,49.435 Q269.476,49.435 268.398,49.857 Q267.32,50.28 266.508,51 Q265.696,51.72 265.234,52.689 Q264.772,53.658 264.772,54.751 Q264.772,55.844 265.248,56.788 Q265.724,57.732 266.536,58.453 Q267.348,59.173 268.426,59.583 Q269.504,59.993 270.736,59.993 z M266.06,62.601 Q266.732,63.819 268.062,64.489 Q269.392,65.16 270.904,65.16 Q272.052,65.16 273.13,64.725 Q274.208,64.291 274.964,63.57 Q275.916,62.701 276.196,61.794 Q276.476,60.887 276.476,59.72 L276.476,58.328 Q275.608,59.844 274.026,60.688 Q272.444,61.533 270.484,61.533 Q269.7,61.533 268.762,61.322 Q267.824,61.111 266.928,60.713 Q266.032,60.316 265.248,59.72 Q264.464,59.123 264.016,58.328 Q263.624,57.683 263.274,56.751 Q262.924,55.819 262.924,54.701 Q262.924,53.509 263.302,52.54 Q263.68,51.571 264.184,50.925 Q265.304,49.509 266.984,48.715 Q268.664,47.92 270.596,47.92 Q272.5,47.92 274.082,48.727 Q275.664,49.534 276.476,50.925 L276.476,48.143 L280.788,48.143 L280.788,49.683 L278.324,49.683 L278.324,59.397 Q278.324,60.142 278.254,60.8 Q278.184,61.459 278.002,62.08 Q277.82,62.701 277.456,63.272 Q277.092,63.843 276.504,64.415 Q275.384,65.508 273.9,66.042 Q272.416,66.576 270.792,66.576 Q269.7,66.576 268.636,66.315 Q267.572,66.054 266.648,65.557 Q265.724,65.061 265.01,64.315 Q264.296,63.57 263.932,62.601 z" fill="#80AECE"/>
    <path d="M294.956,53.931 Q294.788,52.938 294.256,52.105 Q293.724,51.273 292.912,50.677 Q292.1,50.081 291.078,49.745 Q290.056,49.41 288.936,49.41 Q287.872,49.41 286.906,49.77 Q285.94,50.131 285.17,50.752 Q284.4,51.373 283.882,52.192 Q283.364,53.012 283.252,53.931 z M296.076,57.533 Q295.6,58.453 294.886,59.185 Q294.172,59.918 293.248,60.44 Q292.324,60.962 291.26,61.247 Q290.196,61.533 289.076,61.533 Q287.48,61.533 286.094,61.011 Q284.708,60.49 283.658,59.571 Q282.608,58.651 282.006,57.422 Q281.404,56.192 281.404,54.801 Q281.404,53.41 281.992,52.168 Q282.58,50.925 283.588,49.981 Q284.596,49.037 285.982,48.479 Q287.368,47.92 288.964,47.92 Q290.588,47.92 292.002,48.454 Q293.416,48.988 294.466,49.907 Q295.516,50.826 296.104,52.081 Q296.692,53.335 296.692,54.776 L296.692,55.273 L283.252,55.273 Q283.308,56.291 283.798,57.161 Q284.288,58.03 285.072,58.676 Q285.856,59.322 286.864,59.695 Q287.872,60.067 289.02,60.067 Q290.616,60.067 291.96,59.421 Q293.304,58.776 294.116,57.533 z" fill="#80AECE"/>
    <path d="M302.32,59.645 L305.792,59.645 L305.792,61.185 L300.472,61.185 L300.472,49.683 L297.644,49.683 L297.644,48.143 L300.472,48.143 L300.472,43.448 L302.32,43.448 L302.32,48.143 L305.568,48.143 L305.568,49.683 L302.32,49.683 z" fill="#80AECE"/>
    <path d="M310.972,50.578 Q311.7,49.336 312.974,48.628 Q314.248,47.92 315.844,47.92 Q318.476,47.92 320.24,49.758 Q321.192,50.776 321.402,51.882 Q321.612,52.987 321.612,54.229 L321.612,59.645 L324.076,59.645 L324.076,61.185 L317.3,61.185 L317.3,59.645 L319.764,59.645 L319.764,54.9 Q319.764,53.981 319.708,53.074 Q319.652,52.168 319.12,51.373 Q318.56,50.503 317.566,50.006 Q316.572,49.509 315.452,49.509 Q314.472,49.509 313.618,49.832 Q312.764,50.155 312.12,50.801 Q311.7,51.224 311.462,51.646 Q311.224,52.068 311.126,52.515 Q311.028,52.963 311,53.447 Q310.972,53.931 310.972,54.453 L310.972,59.645 L313.436,59.645 L313.436,61.185 L306.66,61.185 L306.66,59.645 L309.124,59.645 L309.124,44.988 L306.66,44.988 L306.66,43.448 L310.972,43.448 z" fill="#80AECE"/>
    <path d="M338.076,53.931 Q337.908,52.938 337.376,52.105 Q336.844,51.273 336.032,50.677 Q335.22,50.081 334.198,49.745 Q333.176,49.41 332.056,49.41 Q330.992,49.41 330.026,49.77 Q329.06,50.131 328.29,50.752 Q327.52,51.373 327.002,52.192 Q326.484,53.012 326.372,53.931 z M339.196,57.533 Q338.72,58.453 338.006,59.185 Q337.292,59.918 336.368,60.44 Q335.444,60.962 334.38,61.247 Q333.316,61.533 332.196,61.533 Q330.6,61.533 329.214,61.011 Q327.828,60.49 326.778,59.571 Q325.728,58.651 325.126,57.422 Q324.524,56.192 324.524,54.801 Q324.524,53.41 325.112,52.168 Q325.7,50.925 326.708,49.981 Q327.716,49.037 329.102,48.479 Q330.488,47.92 332.084,47.92 Q333.708,47.92 335.122,48.454 Q336.536,48.988 337.586,49.907 Q338.636,50.826 339.224,52.081 Q339.812,53.335 339.812,54.776 L339.812,55.273 L326.372,55.273 Q326.428,56.291 326.918,57.161 Q327.408,58.03 328.192,58.676 Q328.976,59.322 329.984,59.695 Q330.992,60.067 332.14,60.067 Q333.736,60.067 335.08,59.421 Q336.424,58.776 337.236,57.533 z" fill="#80AECE"/>
    <path d="M345.132,50.801 Q345.384,50.131 345.86,49.634 Q346.336,49.137 346.952,48.814 Q347.568,48.491 348.31,48.329 Q349.052,48.168 349.836,48.143 L349.836,49.683 Q347.372,49.882 346.252,51.087 Q345.132,52.292 345.132,54.403 L345.132,59.645 L347.596,59.645 L347.596,61.185 L340.82,61.185 L340.82,59.645 L343.284,59.645 L343.284,49.683 L340.82,49.683 L340.82,48.143 L345.132,48.143 z" fill="#80AECE"/>
    <path d="M354.82,61.185 L352.888,61.185 L352.888,58.477 L354.82,58.477 z" fill="#80AECE"/>
  </g>
</svg>
