<?xml version="1.0" encoding="UTF-8"?>
<!DOCTYPE svg PUBLIC "-//W3C//DTD SVG 1.1//EN" "http://www.w3.org/Graphics/SVG/1.1/DTD/svg11.dtd">
<svg version="1.1" xmlns="http://www.w3.org/2000/svg" xmlns:xlink="http://www.w3.org/1999/xlink" x="0" y="0" width="69.468" height="20.384" viewBox="0, 0, 69.468, 20.384">
  <g id="Layer_2" transform="translate(-373.832, -351.508)">
    <path d="M388.336,353.356 L385.788,353.356 L385.788,351.508 L392.9,351.508 L392.9,353.356 L390.352,353.356 L390.352,369.652 L392.9,369.652 L392.9,371.5 L385.788,371.5 L385.788,369.652 L388.336,369.652 L388.336,362.176 L378.396,362.176 L378.396,369.652 L380.972,369.652 L380.972,371.5 L373.832,371.5 L373.832,369.652 L376.38,369.652 L376.38,353.356 L373.832,353.356 L373.832,351.508 L380.972,351.508 L380.972,353.356 L378.396,353.356 L378.396,360.608 L388.336,360.608 z" fill="#FFFFFF"/>
    <path d="M401.496,358.368 Q400.264,358.368 399.186,358.83 Q398.108,359.292 397.31,360.09 Q396.512,360.888 396.036,361.966 Q395.56,363.044 395.56,364.248 Q395.56,365.424 396.022,366.488 Q396.484,367.552 397.282,368.35 Q398.08,369.148 399.144,369.624 Q400.208,370.1 401.412,370.1 Q402.672,370.1 403.75,369.638 Q404.828,369.176 405.626,368.378 Q406.424,367.58 406.886,366.502 Q407.348,365.424 407.348,364.192 Q407.348,362.988 406.886,361.924 Q406.424,360.86 405.626,360.076 Q404.828,359.292 403.764,358.83 Q402.7,358.368 401.496,358.368 z M407.32,368.448 Q406.34,370.128 404.8,371.01 Q403.26,371.892 401.328,371.892 Q399.312,371.892 397.59,370.968 Q395.868,370.044 394.888,368.448 Q394.328,367.552 393.992,366.502 Q393.656,365.452 393.712,364.22 Q393.712,363.436 393.824,362.82 Q393.936,362.204 394.104,361.728 Q394.272,361.252 394.496,360.846 Q394.72,360.44 394.944,360.02 Q395.392,359.236 396.064,358.592 Q396.736,357.948 397.576,357.486 Q398.416,357.024 399.354,356.786 Q400.292,356.548 401.3,356.548 Q403.316,356.548 404.814,357.444 Q406.312,358.34 407.32,360.02 L407.32,356.8 L411.604,356.8 L411.604,358.536 L409.168,358.536 L409.168,369.764 L411.604,369.764 L411.604,371.5 L407.32,371.5 z" fill="#FFFFFF"/>
    <path d="M426.612,361.224 L424.876,361.224 Q424.064,359.908 422.72,359.152 Q421.376,358.396 419.836,358.396 Q418.604,358.396 417.554,358.858 Q416.504,359.32 415.72,360.118 Q414.936,360.916 414.488,361.994 Q414.04,363.072 414.04,364.276 Q414.04,365.508 414.502,366.558 Q414.964,367.608 415.762,368.392 Q416.56,369.176 417.652,369.61 Q418.744,370.044 419.976,370.044 Q420.76,370.044 421.53,369.834 Q422.3,369.624 422.958,369.218 Q423.616,368.812 424.148,368.224 Q424.68,367.636 425.016,366.908 L427.088,366.908 Q426.668,368.056 425.94,368.98 Q425.212,369.904 424.246,370.548 Q423.28,371.192 422.146,371.542 Q421.012,371.892 419.808,371.892 Q418.24,371.892 416.854,371.29 Q415.468,370.688 414.432,369.652 Q413.396,368.616 412.794,367.23 Q412.192,365.844 412.192,364.304 Q412.192,362.708 412.766,361.322 Q413.34,359.936 414.348,358.9 Q415.412,357.836 416.77,357.192 Q418.128,356.548 419.724,356.548 Q421.292,356.548 422.58,357.15 Q423.868,357.752 424.876,358.9 L424.876,356.8 L426.612,356.8 z" fill="#FFFFFF"/>
    <path d="M432.268,363.352 L437.672,358.536 L435.46,358.536 L435.46,356.8 L442.376,356.8 L442.376,358.536 L439.968,358.536 L434.452,363.548 L440.64,369.764 L443.3,369.764 L443.3,371.5 L436.076,371.5 L436.076,369.764 L438.148,369.764 L432.268,363.828 L432.268,369.764 L434.508,369.764 L434.508,371.5 L427.9,371.5 L427.9,369.764 L430.42,369.764 L430.42,353.244 L427.9,353.244 L427.9,351.508 L432.268,351.508 z" fill="#FFFFFF"/>
  </g>
</svg>
