<?xml version="1.0" encoding="UTF-8"?>
<!DOCTYPE svg PUBLIC "-//W3C//DTD SVG 1.1//EN" "http://www.w3.org/Graphics/SVG/1.1/DTD/svg11.dtd">
<svg version="1.1" xmlns="http://www.w3.org/2000/svg" xmlns:xlink="http://www.w3.org/1999/xlink" x="0" y="0" width="168.094" height="69.426" viewBox="0, 0, 168.094, 69.426">
  <g id="Layer_1" transform="translate(-316.87, -254.87)">
    <g>
      <path d="M325.028,288.418 L325.027,268.564 L316.92,268.562 L316.87,254.924 L348.906,254.934 L348.955,268.572 L339.907,268.569 L339.908,288.418 z" fill="#168883"/>
      <path d="M348.955,322.051 L316.92,322.041 L316.87,308.403 L325.03,308.406 L325.028,288.373 L339.908,288.373 L339.91,308.411 L348.906,308.413 z" fill="#00726A"/>
      <path d="M447.484,288.475 L447.484,285.409 L447.484,285.409 L458.281,254.887 L484.927,254.87 L484.965,268.707 L476.042,268.718 L476.031,288.475 L461.248,288.475 L461.248,285.967 L460.348,288.475 z" fill="#28B3B0"/>
      <path d="M447.497,324.296 L447.471,324.224 L447.471,288.42 L460.367,288.42 z" fill="#00726A"/>
      <path d="M484.965,322.083 L461.248,322.065 L461.248,288.42 L476.031,288.42 L476.02,308.404 L484.953,308.418 z" fill="#00726A"/>
      <path d="M447.497,324.296 L434.585,288.373 L447.501,288.373 L447.501,324.285 z" fill="#28B3B0"/>
      <path d="M410.004,322.085 L410.016,308.42 L418.948,308.406 L418.937,288.373 L433.721,288.373 L433.721,322.066 z" fill="#28B3B0"/>
      <path d="M418.937,288.418 L418.926,268.72 L410.004,268.708 L410.042,254.871 L436.687,254.888 L447.484,285.409 L447.498,285.37 L447.498,288.418 L434.601,288.418 L433.721,285.968 L433.721,288.418 z" fill="#00726A"/>
      <path d="M383.926,288.475 L383.926,281.634 L390.666,281.627 L390.666,268.672 L389.259,268.672 L383.926,268.677 L383.926,254.924 L388.278,254.915 L388.279,254.923 C392.122,255.02 396.057,255.817 399.292,257.972 C402.485,260.1 404.689,263.492 405.58,267.179 C407.015,273.116 405.289,279.723 401.402,284.414 C400.099,286 398.516,287.325 396.817,288.475 z" fill="#28B3B0"/>
      <path d="M383.916,322.145 L383.916,308.42 L388.085,308.42 L388.085,308.417 L390.566,308.417 L390.566,295.489 L383.916,295.49 L383.916,288.42 L396.898,288.42 L396.609,288.616 C401.327,290.356 404.518,294.99 405.719,299.687 C406.194,301.546 406.38,303.477 406.265,305.392 C406.102,308.102 405.307,310.735 404.099,313.164 C403.276,314.82 402.336,316.378 400.99,317.669 C398.409,320.145 394.821,321.553 391.284,321.96 C390.02,322.106 389.969,322.089 388.854,322.129 L388.852,322.14 z" fill="#00726A"/>
      <path d="M353.683,322.174 L353.645,308.42 L362.628,308.42 C362.657,301.738 362.633,295.055 362.616,288.373 L383.998,288.373 L383.998,295.49 L377.392,295.491 L377.404,308.42 L383.998,308.42 L383.998,322.145 z" fill="#28B3B0"/>
      <path d="M362.617,288.418 C362.605,281.845 362.574,275.272 362.562,268.699 L353.534,268.708 L353.517,254.985 L383.995,254.923 L383.995,268.677 L377.368,268.684 L377.38,281.641 L383.995,281.634 L383.995,288.418 z" fill="#00726A"/>
      <path d="M325.028,288.418 L325.027,268.564 L316.92,268.562 L316.87,254.924 L348.906,254.934 L348.955,268.572 L339.907,268.569 L339.908,288.418 z" fill="#018ABF"/>
      <path d="M348.955,322.051 L316.92,322.041 L316.87,308.403 L325.03,308.406 L325.028,288.373 L339.908,288.373 L339.91,308.411 L348.906,308.413 z" fill="#013E68"/>
      <path d="M447.484,288.475 L447.484,285.409 L447.484,285.409 L458.281,254.887 L484.927,254.87 L484.965,268.707 L476.042,268.718 L476.031,288.475 L461.248,288.475 L461.248,285.967 L460.348,288.475 z" fill="#018ABF"/>
      <path d="M447.497,324.296 L447.471,324.224 L447.471,288.42 L460.367,288.42 z" fill="#013E68"/>
      <path d="M484.965,322.083 L461.248,322.065 L461.248,288.42 L476.031,288.42 L476.02,308.404 L484.953,308.418 z" fill="#013E68"/>
      <path d="M447.497,324.296 L434.585,288.373 L447.501,288.373 L447.501,324.285 z" fill="#018ABF"/>
      <path d="M410.004,322.085 L410.016,308.42 L418.948,308.406 L418.937,288.373 L433.721,288.373 L433.721,322.066 z" fill="#018ABF"/>
      <path d="M418.937,288.418 L418.926,268.72 L410.004,268.708 L410.042,254.871 L436.687,254.888 L447.484,285.409 L447.498,285.37 L447.498,288.418 L434.601,288.418 L433.721,285.968 L433.721,288.418 z" fill="#00B1DA"/>
      <path d="M383.926,288.475 L383.926,281.634 L390.666,281.627 L390.666,268.672 L389.259,268.672 L383.926,268.677 L383.926,254.924 L388.278,254.915 L388.279,254.923 C392.122,255.02 396.057,255.817 399.292,257.972 C402.485,260.1 404.689,263.492 405.58,267.179 C407.015,273.116 405.289,279.723 401.402,284.414 C400.099,286 398.516,287.325 396.817,288.475 z" fill="#00B1DA"/>
      <path d="M383.916,322.145 L383.916,308.42 L388.085,308.42 L388.085,308.417 L390.566,308.417 L390.566,295.489 L383.916,295.49 L383.916,288.42 L396.898,288.42 L396.609,288.616 C401.327,290.356 404.518,294.99 405.719,299.687 C406.194,301.546 406.38,303.477 406.265,305.392 C406.102,308.102 405.307,310.735 404.099,313.164 C403.276,314.82 402.336,316.378 400.99,317.669 C398.409,320.145 394.821,321.553 391.284,321.96 C390.02,322.106 389.969,322.089 388.854,322.129 L388.852,322.14 z" fill="#018ABF"/>
      <path d="M353.683,322.174 L353.645,308.42 L362.628,308.42 C362.657,301.738 362.633,295.055 362.616,288.373 L383.998,288.373 L383.998,295.49 L377.392,295.491 L377.404,308.42 L383.998,308.42 L383.998,322.145 z" fill="#00B1DA"/>
      <path d="M362.617,288.418 C362.605,281.845 362.574,275.272 362.562,268.699 L353.534,268.708 L353.517,254.985 L383.995,254.923 L383.995,268.677 L377.368,268.684 L377.38,281.641 L383.995,281.634 L383.995,288.418 z" fill="#013E68"/>
    </g>
  </g>
</svg>
