<?xml version="1.0" encoding="UTF-8"?>
<!DOCTYPE svg PUBLIC "-//W3C//DTD SVG 1.1//EN" "http://www.w3.org/Graphics/SVG/1.1/DTD/svg11.dtd">
<svg version="1.1" xmlns="http://www.w3.org/2000/svg" xmlns:xlink="http://www.w3.org/1999/xlink" x="0" y="0" width="73" height="73" viewBox="0, 0, 73, 73">
  <g id="Layer_2" transform="translate(-274.888, -244)">
    <path d="M311.388,244 C331.546,244 347.888,260.342 347.888,280.5 C347.888,300.658 331.546,317 311.388,317 C291.23,317 274.888,300.658 274.888,280.5 C274.888,260.342 291.23,244 311.388,244 z M311.388,249.5 C294.267,249.5 280.388,263.379 280.388,280.5 C280.388,297.621 294.267,311.5 311.388,311.5 C328.509,311.5 342.388,297.621 342.388,280.5 C342.388,263.379 328.509,249.5 311.388,249.5 z" fill="#FFFFFF"/>
    <path d="M317.888,296.75 C317.888,297.649 317.162,298.375 316.263,298.375 L306.513,298.375 C305.614,298.375 304.888,297.649 304.888,296.75 C304.888,295.851 305.614,295.125 306.513,295.125 L316.263,295.125 C317.162,295.125 317.888,295.851 317.888,296.75 z M316.263,300 L306.513,300 C305.614,300 304.888,300.726 304.888,301.625 C304.888,302.524 305.614,303.25 306.513,303.25 C306.513,305.044 307.969,306.5 309.763,306.5 L313.013,306.5 C314.809,306.5 316.263,305.044 316.263,303.25 C317.162,303.25 317.888,302.524 317.888,301.625 C317.888,300.726 317.162,300 316.263,300 z M311.388,257.75 C318.557,257.75 324.388,263.584 324.388,270.75 C324.388,275.384 321.954,279.567 317.878,281.938 L316.263,282.877 L316.263,290.25 L306.513,290.25 L306.513,282.881 L304.898,281.938 C300.819,279.564 298.388,275.381 298.388,270.75 C298.388,263.584 304.222,257.75 311.388,257.75 z M311.388,254.5 C302.415,254.5 295.138,261.775 295.138,270.75 C295.138,276.746 298.425,281.928 303.263,284.746 L303.263,290.25 C303.263,292.044 304.719,293.5 306.513,293.5 L316.263,293.5 C318.057,293.5 319.513,292.044 319.513,290.25 L319.513,284.746 C324.354,281.932 327.638,276.746 327.638,270.75 C327.638,261.775 320.363,254.5 311.388,254.5 L311.388,254.5 z" fill="#FFFFFF"/>
  </g>
</svg>
