<?xml version="1.0" encoding="UTF-8"?>
<!DOCTYPE svg PUBLIC "-//W3C//DTD SVG 1.1//EN" "http://www.w3.org/Graphics/SVG/1.1/DTD/svg11.dtd">
<svg version="1.1" xmlns="http://www.w3.org/2000/svg" xmlns:xlink="http://www.w3.org/1999/xlink" x="0" y="0" width="73" height="73" viewBox="0, 0, 73, 73">
  <g id="Layer_2" transform="translate(-281.82, -452)">
    <g>
      <path d="M313.204,477.284 C313.204,471.922 308.758,467.56 303.294,467.56 C297.829,467.56 293.384,471.922 293.384,477.284 C293.384,480.964 295.504,484.137 298.586,485.786 C294.422,487.166 290.94,490.41 288.532,495.28 C288.288,495.772 288.49,496.366 288.982,496.608 C289.122,496.678 289.273,496.711 289.42,496.711 C289.786,496.711 290.137,496.507 290.309,496.16 C293.227,490.258 297.839,487.009 303.296,487.009 C308.758,487.007 313.204,482.645 313.204,477.284 z M295.366,477.284 C295.366,473.014 298.921,469.542 303.294,469.542 C307.666,469.542 311.222,473.014 311.222,477.284 C311.222,481.553 307.666,485.025 303.294,485.025 C298.921,485.025 295.366,481.553 295.366,477.284 z" fill="#FFFFFF"/>
      <path d="M347.785,495.28 C345.377,490.41 341.893,487.166 337.731,485.786 C340.813,484.137 342.933,480.964 342.933,477.284 C342.933,471.922 338.488,467.56 333.023,467.56 C327.559,467.56 323.114,471.922 323.114,477.284 C323.114,482.645 327.559,487.007 333.023,487.007 C338.48,487.007 343.092,490.258 346.01,496.158 C346.182,496.507 346.535,496.709 346.897,496.709 C347.046,496.709 347.195,496.676 347.337,496.606 C347.827,496.366 348.027,495.772 347.785,495.28 z M325.096,477.284 C325.096,473.014 328.651,469.542 333.023,469.542 C337.396,469.542 340.951,473.014 340.951,477.284 C340.951,481.553 337.396,485.025 333.023,485.025 C328.651,485.025 325.096,481.553 325.096,477.284 z" fill="#FFFFFF"/>
      <path d="M323.133,500.202 C326.069,498.511 328.069,495.413 328.069,491.839 C328.069,486.48 323.623,482.122 318.159,482.122 C312.694,482.122 308.249,486.48 308.249,491.839 C308.249,495.415 310.248,498.511 313.188,500.202 C307.018,501.801 302.172,506.542 298.477,514.595 C298.249,515.092 298.465,515.681 298.963,515.909 C299.098,515.97 299.238,516 299.377,516 C299.752,516 300.11,515.786 300.277,515.423 C304.558,506.096 310.407,501.563 318.159,501.563 C325.908,501.563 331.755,506.096 336.038,515.423 C336.266,515.919 336.849,516.135 337.352,515.909 C337.85,515.681 338.066,515.092 337.838,514.595 C334.141,506.542 329.299,501.797 323.133,500.202 z M310.231,491.839 C310.231,487.574 313.786,484.104 318.159,484.104 C322.531,484.104 326.087,487.574 326.087,491.839 C326.087,496.107 322.531,499.579 318.16,499.579 C313.788,499.579 310.231,496.107 310.231,491.839 z" fill="#FFFFFF"/>
    </g>
    <path d="M318.32,452 C338.478,452 354.82,468.342 354.82,488.5 C354.82,508.658 338.478,525 318.32,525 C298.162,525 281.82,508.658 281.82,488.5 C281.82,468.342 298.162,452 318.32,452 z M318.32,457.5 C301.199,457.5 287.32,471.379 287.32,488.5 C287.32,505.621 301.199,519.5 318.32,519.5 C335.441,519.5 349.32,505.621 349.32,488.5 C349.32,471.379 335.441,457.5 318.32,457.5 z" fill="#FFFFFF"/>
  </g>
</svg>
