<?xml version="1.0" encoding="UTF-8"?>
<!DOCTYPE svg PUBLIC "-//W3C//DTD SVG 1.1//EN" "http://www.w3.org/Graphics/SVG/1.1/DTD/svg11.dtd">
<svg version="1.1" xmlns="http://www.w3.org/2000/svg" xmlns:xlink="http://www.w3.org/1999/xlink" x="0" y="0" width="73" height="73" viewBox="0, 0, 73, 73">
  <g id="Layer_2" transform="translate(-278.868, -339.5)">
    <path d="M315.368,339.5 C335.526,339.5 351.868,355.842 351.868,376 C351.868,396.158 335.526,412.5 315.368,412.5 C295.21,412.5 278.868,396.158 278.868,376 C278.868,355.842 295.21,339.5 315.368,339.5 z M315.368,345 C298.247,345 284.368,358.879 284.368,376 C284.368,393.121 298.247,407 315.368,407 C332.489,407 346.368,393.121 346.368,376 C346.368,358.879 332.489,345 315.368,345 z" fill="#FFFFFF"/>
    <g>
      <path d="M296.736,376.583 L307.677,365.509 C308.769,364.402 308.769,362.609 307.677,361.501 C306.583,360.394 304.812,360.394 303.718,361.501 L290.841,374.536 C290.281,375.099 290.011,375.843 290.021,376.579 C290.011,377.317 290.281,378.056 290.841,378.621 L303.718,391.655 C304.808,392.761 306.583,392.761 307.677,391.655 C308.772,390.548 308.769,388.755 307.677,387.648 L296.736,376.583 L296.736,376.583 z" fill="#FFFFFF"/>
      <path d="M338.927,373.958 L326.051,360.923 C324.957,359.816 323.185,359.816 322.09,360.923 C320.996,362.027 320.996,363.823 322.09,364.927 L333.029,375.999 L322.09,387.074 C320.996,388.18 320.996,389.973 322.09,391.08 C323.181,392.188 324.953,392.188 326.051,391.08 L338.927,378.046 C339.484,377.482 339.757,376.742 339.747,376.003 C339.752,375.261 339.479,374.521 338.927,373.958 z" fill="#FFFFFF"/>
      <path d="M315.274,392.486 C315,394.17 313.433,395.312 311.768,395.035 L311.768,395.035 C310.105,394.758 308.979,393.167 309.252,391.486 L314.442,359.511 C314.716,357.828 316.287,356.688 317.947,356.965 L317.947,356.965 C319.609,357.242 320.736,358.829 320.462,360.514 L315.274,392.486 z" fill="#FFFFFF"/>
    </g>
  </g>
</svg>
