<?xml version="1.0" encoding="UTF-8"?>
<!DOCTYPE svg PUBLIC "-//W3C//DTD SVG 1.1//EN" "http://www.w3.org/Graphics/SVG/1.1/DTD/svg11.dtd">
<svg version="1.1" xmlns="http://www.w3.org/2000/svg" xmlns:xlink="http://www.w3.org/1999/xlink" x="0" y="0" width="74.004" height="19.992" viewBox="0, 0, 74.004, 19.992">
  <g id="Layer_2" transform="translate(-369.296, -251.008)">
    <path d="M377.388,269.152 L379.936,269.152 L379.936,271 L372.824,271 L372.824,269.152 L375.372,269.152 L375.372,252.856 L371.032,252.856 L371.032,256.356 L369.296,256.356 L369.296,251.008 L383.464,251.008 L383.464,256.356 L381.728,256.356 L381.728,252.856 L377.388,252.856 z" fill="#FFFFFF"/>
    <path d="M388.532,259.044 Q389.26,257.644 390.534,256.846 Q391.808,256.048 393.404,256.048 Q396.036,256.048 397.8,258.12 Q398.752,259.268 398.962,260.514 Q399.172,261.76 399.172,263.16 L399.172,269.264 L401.636,269.264 L401.636,271 L394.86,271 L394.86,269.264 L397.324,269.264 L397.324,263.916 Q397.324,262.88 397.268,261.858 Q397.212,260.836 396.68,259.94 Q396.12,258.96 395.126,258.4 Q394.132,257.84 393.012,257.84 Q392.032,257.84 391.178,258.204 Q390.324,258.568 389.68,259.296 Q389.26,259.772 389.022,260.248 Q388.784,260.724 388.686,261.228 Q388.588,261.732 388.56,262.278 Q388.532,262.824 388.532,263.412 L388.532,269.264 L390.996,269.264 L390.996,271 L384.22,271 L384.22,269.264 L386.684,269.264 L386.684,252.744 L384.22,252.744 L384.22,251.008 L388.532,251.008 z" fill="#FFFFFF"/>
    <path d="M406.508,253.892 L404.66,253.892 L404.66,251.008 L406.508,251.008 z M406.508,269.264 L408.972,269.264 L408.972,271 L402.14,271 L402.14,269.264 L404.66,269.264 L404.66,258.036 L402.196,258.036 L402.196,256.3 L406.508,256.3 z" fill="#FFFFFF"/>
    <path d="M413.732,258.876 Q414.432,257.504 415.79,256.776 Q417.148,256.048 418.66,256.048 Q419.276,256.048 420.018,256.216 Q420.76,256.384 421.46,256.734 Q422.16,257.084 422.762,257.616 Q423.364,258.148 423.728,258.876 Q424.008,259.436 424.274,260.402 Q424.54,261.368 424.54,262.712 L424.54,269.264 L427.004,269.264 L427.004,271 L420.228,271 L420.228,269.264 L422.692,269.264 L422.692,263.384 Q422.692,262.404 422.594,261.466 Q422.496,260.528 421.992,259.66 Q421.684,259.156 421.25,258.806 Q420.816,258.456 420.298,258.246 Q419.78,258.036 419.234,257.952 Q418.688,257.868 418.156,257.868 Q417.176,257.868 416.266,258.274 Q415.356,258.68 414.712,259.408 Q413.984,260.248 413.858,261.186 Q413.732,262.124 413.732,263.16 L413.732,269.264 L416.196,269.264 L416.196,271 L409.42,271 L409.42,269.264 L411.884,269.264 L411.884,258.036 L409.42,258.036 L409.42,256.3 L413.732,256.3 z" fill="#FFFFFF"/>
    <path d="M432.268,262.852 L437.672,258.036 L435.46,258.036 L435.46,256.3 L442.376,256.3 L442.376,258.036 L439.968,258.036 L434.452,263.048 L440.64,269.264 L443.3,269.264 L443.3,271 L436.076,271 L436.076,269.264 L438.148,269.264 L432.268,263.328 L432.268,269.264 L434.508,269.264 L434.508,271 L427.9,271 L427.9,269.264 L430.42,269.264 L430.42,252.744 L427.9,252.744 L427.9,251.008 L432.268,251.008 z" fill="#FFFFFF"/>
  </g>
</svg>
