<?xml version="1.0" encoding="UTF-8"?>
<!DOCTYPE svg PUBLIC "-//W3C//DTD SVG 1.1//EN" "http://www.w3.org/Graphics/SVG/1.1/DTD/svg11.dtd">
<svg version="1.1" xmlns="http://www.w3.org/2000/svg" xmlns:xlink="http://www.w3.org/1999/xlink" x="0" y="0" width="117.796" height="26.068" viewBox="0, 0, 117.796, 26.068">
  <g id="Layer_2" transform="translate(-750.616, -269.508)">
    <path d="M758.708,287.652 L761.256,287.652 L761.256,289.5 L754.144,289.5 L754.144,287.652 L756.692,287.652 L756.692,271.356 L752.352,271.356 L752.352,274.856 L750.616,274.856 L750.616,269.508 L764.784,269.508 L764.784,274.856 L763.048,274.856 L763.048,271.356 L758.708,271.356 z" fill="#FFFFFF"/>
    <path d="M772.96,288.072 Q774.164,288.072 775.242,287.61 Q776.32,287.148 777.104,286.35 Q777.888,285.552 778.35,284.488 Q778.812,283.424 778.812,282.22 Q778.812,281.016 778.364,279.952 Q777.916,278.888 777.118,278.09 Q776.32,277.292 775.256,276.83 Q774.192,276.368 772.988,276.368 Q771.756,276.368 770.692,276.83 Q769.628,277.292 768.83,278.076 Q768.032,278.86 767.57,279.924 Q767.108,280.988 767.108,282.192 Q767.108,283.396 767.556,284.46 Q768.004,285.524 768.802,286.322 Q769.6,287.12 770.664,287.596 Q771.728,288.072 772.96,288.072 z M772.96,289.892 Q771.364,289.892 769.964,289.29 Q768.564,288.688 767.514,287.652 Q766.464,286.616 765.862,285.216 Q765.26,283.816 765.26,282.248 Q765.26,280.652 765.876,279.238 Q766.492,277.824 767.542,276.788 Q768.592,275.752 770.006,275.15 Q771.42,274.548 773.016,274.548 Q774.584,274.548 775.97,275.15 Q777.356,275.752 778.406,276.774 Q779.456,277.796 780.058,279.182 Q780.66,280.568 780.66,282.108 Q780.66,283.704 780.058,285.132 Q779.456,286.56 778.42,287.61 Q777.384,288.66 775.984,289.276 Q774.584,289.892 772.96,289.892 z" fill="#FFFFFF"/>
    <path d="M789.312,288.156 Q790.544,288.156 791.608,287.68 Q792.672,287.204 793.47,286.392 Q794.268,285.58 794.73,284.502 Q795.192,283.424 795.192,282.192 Q795.192,280.988 794.73,279.896 Q794.268,278.804 793.47,278.006 Q792.672,277.208 791.594,276.732 Q790.516,276.256 789.284,276.256 Q788.052,276.256 786.974,276.732 Q785.896,277.208 785.084,278.02 Q784.272,278.832 783.81,279.924 Q783.348,281.016 783.348,282.248 Q783.348,283.48 783.824,284.544 Q784.3,285.608 785.112,286.42 Q785.924,287.232 787.002,287.694 Q788.08,288.156 789.312,288.156 z M784.636,291.096 Q785.308,292.468 786.638,293.224 Q787.968,293.98 789.48,293.98 Q790.628,293.98 791.706,293.49 Q792.784,293 793.54,292.188 Q794.492,291.208 794.772,290.186 Q795.052,289.164 795.052,287.848 L795.052,286.28 Q794.184,287.988 792.602,288.94 Q791.02,289.892 789.06,289.892 Q788.276,289.892 787.338,289.654 Q786.4,289.416 785.504,288.968 Q784.608,288.52 783.824,287.848 Q783.04,287.176 782.592,286.28 Q782.2,285.552 781.85,284.502 Q781.5,283.452 781.5,282.192 Q781.5,280.848 781.878,279.756 Q782.256,278.664 782.76,277.936 Q783.88,276.34 785.56,275.444 Q787.24,274.548 789.172,274.548 Q791.076,274.548 792.658,275.458 Q794.24,276.368 795.052,277.936 L795.052,274.8 L799.364,274.8 L799.364,276.536 L796.9,276.536 L796.9,287.484 Q796.9,288.324 796.83,289.066 Q796.76,289.808 796.578,290.508 Q796.396,291.208 796.032,291.852 Q795.668,292.496 795.08,293.14 Q793.96,294.372 792.476,294.974 Q790.992,295.576 789.368,295.576 Q788.276,295.576 787.212,295.282 Q786.148,294.988 785.224,294.428 Q784.3,293.868 783.586,293.028 Q782.872,292.188 782.508,291.096 z" fill="#FFFFFF"/>
    <path d="M813.532,281.324 Q813.364,280.204 812.832,279.266 Q812.3,278.328 811.488,277.656 Q810.676,276.984 809.654,276.606 Q808.632,276.228 807.512,276.228 Q806.448,276.228 805.482,276.634 Q804.516,277.04 803.746,277.74 Q802.976,278.44 802.458,279.364 Q801.94,280.288 801.828,281.324 z M814.652,285.384 Q814.176,286.42 813.462,287.246 Q812.748,288.072 811.824,288.66 Q810.9,289.248 809.836,289.57 Q808.772,289.892 807.652,289.892 Q806.056,289.892 804.67,289.304 Q803.284,288.716 802.234,287.68 Q801.184,286.644 800.582,285.258 Q799.98,283.872 799.98,282.304 Q799.98,280.736 800.568,279.336 Q801.156,277.936 802.164,276.872 Q803.172,275.808 804.558,275.178 Q805.944,274.548 807.54,274.548 Q809.164,274.548 810.578,275.15 Q811.992,275.752 813.042,276.788 Q814.092,277.824 814.68,279.238 Q815.268,280.652 815.268,282.276 L815.268,282.836 L801.828,282.836 Q801.884,283.984 802.374,284.964 Q802.864,285.944 803.648,286.672 Q804.432,287.4 805.44,287.82 Q806.448,288.24 807.596,288.24 Q809.192,288.24 810.536,287.512 Q811.88,286.784 812.692,285.384 z" fill="#FFFFFF"/>
    <path d="M820.896,287.764 L824.368,287.764 L824.368,289.5 L819.048,289.5 L819.048,276.536 L816.22,276.536 L816.22,274.8 L819.048,274.8 L819.048,269.508 L820.896,269.508 L820.896,274.8 L824.144,274.8 L824.144,276.536 L820.896,276.536 z" fill="#FFFFFF"/>
    <path d="M829.548,277.544 Q830.276,276.144 831.55,275.346 Q832.824,274.548 834.42,274.548 Q837.052,274.548 838.816,276.62 Q839.768,277.768 839.978,279.014 Q840.188,280.26 840.188,281.66 L840.188,287.764 L842.652,287.764 L842.652,289.5 L835.876,289.5 L835.876,287.764 L838.34,287.764 L838.34,282.416 Q838.34,281.38 838.284,280.358 Q838.228,279.336 837.696,278.44 Q837.136,277.46 836.142,276.9 Q835.148,276.34 834.028,276.34 Q833.048,276.34 832.194,276.704 Q831.34,277.068 830.696,277.796 Q830.276,278.272 830.038,278.748 Q829.8,279.224 829.702,279.728 Q829.604,280.232 829.576,280.778 Q829.548,281.324 829.548,281.912 L829.548,287.764 L832.012,287.764 L832.012,289.5 L825.236,289.5 L825.236,287.764 L827.7,287.764 L827.7,271.244 L825.236,271.244 L825.236,269.508 L829.548,269.508 z" fill="#FFFFFF"/>
    <path d="M856.652,281.324 Q856.484,280.204 855.952,279.266 Q855.42,278.328 854.608,277.656 Q853.796,276.984 852.774,276.606 Q851.752,276.228 850.632,276.228 Q849.568,276.228 848.602,276.634 Q847.636,277.04 846.866,277.74 Q846.096,278.44 845.578,279.364 Q845.06,280.288 844.948,281.324 z M857.772,285.384 Q857.296,286.42 856.582,287.246 Q855.868,288.072 854.944,288.66 Q854.02,289.248 852.956,289.57 Q851.892,289.892 850.772,289.892 Q849.176,289.892 847.79,289.304 Q846.404,288.716 845.354,287.68 Q844.304,286.644 843.702,285.258 Q843.1,283.872 843.1,282.304 Q843.1,280.736 843.688,279.336 Q844.276,277.936 845.284,276.872 Q846.292,275.808 847.678,275.178 Q849.064,274.548 850.66,274.548 Q852.284,274.548 853.698,275.15 Q855.112,275.752 856.162,276.788 Q857.212,277.824 857.8,279.238 Q858.388,280.652 858.388,282.276 L858.388,282.836 L844.948,282.836 Q845.004,283.984 845.494,284.964 Q845.984,285.944 846.768,286.672 Q847.552,287.4 848.56,287.82 Q849.568,288.24 850.716,288.24 Q852.312,288.24 853.656,287.512 Q855,286.784 855.812,285.384 z" fill="#FFFFFF"/>
    <path d="M863.708,277.796 Q863.96,277.04 864.436,276.48 Q864.912,275.92 865.528,275.556 Q866.144,275.192 866.886,275.01 Q867.628,274.828 868.412,274.8 L868.412,276.536 Q865.948,276.76 864.828,278.118 Q863.708,279.476 863.708,281.856 L863.708,287.764 L866.172,287.764 L866.172,289.5 L859.396,289.5 L859.396,287.764 L861.86,287.764 L861.86,276.536 L859.396,276.536 L859.396,274.8 L863.708,274.8 z" fill="#FFFFFF"/>
  </g>
</svg>
